<?xml version="1.0" encoding="UTF-8"?>
<svg width="12px" height="15px" viewBox="0 0 12 15" version="1.1" xmlns="http://www.w3.org/2000/svg" xmlns:xlink="http://www.w3.org/1999/xlink">
    <!-- Generator: Sketch 45.2 (43514) - http://www.bohemiancoding.com/sketch -->
    <title>Group 3</title>
    <desc>Created with Sketch.</desc>
    <defs></defs>
    <g id="Page-1" stroke="none" stroke-width="1" fill="none" fill-rule="evenodd">
        <g id="Group-3" transform="translate(7.000000, 8.000000) rotate(-9.000000) translate(-7.000000, -8.000000) translate(2.000000, 1.000000)" stroke="#4A90E2" stroke-width="2">
            <ellipse id="Oval" cx="3.80033013" cy="3.43255625" rx="3.80033013" ry="3.43255625"></ellipse>
            <path d="M7.23255486,7.04339481 C7.12910738,7.07438445 7.02211226,7.06213566 6.93190983,7.01642635 C6.84150243,6.97061317 6.76796412,6.89118723 6.73177422,6.78799326 C6.7165879,6.74469014 6.70883083,6.69913146 6.70883083,6.65324263 L6.70883083,13.2100869 C6.70883083,13.0654645 6.82607045,12.9482249 6.97069285,12.9482249 C7.11531524,12.9482249 7.23255486,13.0654645 7.23255486,13.2100869 L7.23255486,6.55800205 C7.23255486,6.76321492 7.10883209,6.93953079 6.93190983,7.01642635 C6.87094206,7.04292472 6.80365682,7.05761687 6.73294004,7.05761687 C6.72489194,7.05761687 6.71685325,7.05742242 6.70883083,7.05703485 C6.65311841,7.05434333 6.59819078,7.04233808 6.5463443,7.02146402 L6.89553826,7.16205399 L7.25076052,7.03747831 C7.24470698,7.03960127 7.23863705,7.04157277 7.23255486,7.04339481 Z" id="Rectangle" transform="translate(6.970693, 10.002921) rotate(-23.000000) translate(-6.970693, -10.002921) "></path>
        </g>
    </g>
</svg>